<?xml version="1.0" encoding="UTF-8"?><svg id="Layer_2" xmlns="http://www.w3.org/2000/svg" viewBox="0 0 702.5 243.7"><defs><style>.cls-1{fill:none;}.cls-1,.cls-2{stroke-width:0px;}.cls-2{fill:#444;}</style></defs><g id="Layer_1-2"><path class="cls-1" d="M12.4,225.1c0,3.4,2.8,6.2,6.2,6.2h167s-12.4,0-12.4-18.6v-90.6h-12.4v22.6H24.7v-49.5h72.3v-12.4H24.7v-12.4h72.3v-12.4H12.4v167ZM98.9,157.1h61.8v12.4h-61.8v-12.4ZM98.9,181.8h61.8v12.4h-61.8v-12.4ZM98.9,206.5h37.1v12.4h-37.1v-12.4ZM24.7,157.1h61.8v12.4H24.7v-12.4ZM24.7,181.8h61.8v12.4H24.7v-12.4ZM24.7,206.5h61.8v12.4H24.7v-12.4Z"/><path class="cls-2" d="M97.1,106.6v-11.3H24.7v49.5h136v-22.6h-48.1c-8.6,0-15.6-7-15.6-15.6Z"/><rect class="cls-2" x="24.7" y="70.5" width="72.3" height="12.4"/><rect class="cls-2" x="98.9" y="206.5" width="37.1" height="12.4"/><rect class="cls-2" x="98.9" y="181.8" width="61.8" height="12.4"/><rect class="cls-2" x="98.9" y="157.1" width="61.8" height="12.4"/><rect class="cls-2" x="24.7" y="206.5" width="61.8" height="12.4"/><rect class="cls-2" x="24.7" y="181.8" width="61.8" height="12.4"/><rect class="cls-2" x="24.7" y="157.1" width="61.8" height="12.4"/><path class="cls-2" d="M173.1,212.7c0,18.6,12.4,18.6,12.4,18.6H18.6c-3.4,0-6.2-2.8-6.2-6.2V58.1h84.7v-12.4H0v179.3c0,10.2,8.3,18.6,18.6,18.6h160.8c10.2,0,18.6-8.3,18.6-18.6v-102.9h-24.7v90.6Z"/><path class="cls-2" d="M227.8,32.3v28.5c0,2-1.6,3.6-3.6,3.6s-3.6-1.6-3.6-3.6v-19.9l-36.6,36.6c-1.4,1.4-3.6,1.4-5,0l-15.3-15.3-29.5,29.5c-1.4,1.4-3.6,1.4-5,0-1.4-1.4-1.4-3.6,0-5l32-32c1.4-1.4,3.6-1.4,5,0l15.3,15.3,34.1-34.1h-19.9c-2,0-3.6-1.6-3.6-3.6s1.6-3.6,3.6-3.6h28.5s0,0,0,0c.1,0,.2,0,.3,0,0,0,.1,0,.2,0,0,0,.1,0,.2,0,0,0,.1,0,.2,0,0,0,.1,0,.2,0,0,0,.1,0,.2,0,0,0,.1,0,.2,0,0,0,.1,0,.2,0,0,0,.1,0,.2,0,0,0,0,0,.1,0,0,0,.1,0,.2,0,0,0,.1,0,.2.1,0,0,0,0,.1,0,0,0,.2.1.2.2,0,0,0,0,0,0,0,0,0,0,0,0,0,0,.1.2.2.2,0,0,0,0,.1.1,0,0,0,0,.1.1,0,0,0,.1,0,.2,0,0,0,0,0,.1,0,0,0,.1,0,.2,0,0,0,0,0,.1,0,0,0,.1,0,.2,0,0,0,.1,0,.2,0,0,0,.1,0,.2,0,0,0,.1,0,.2,0,0,0,.1,0,.2,0,0,0,0,0,.1,0,.1,0,.2,0,.4Z"/><path class="cls-2" d="M131.8,94.8c-1.4,0-2.8-.5-3.9-1.6-1-1-1.6-2.4-1.6-3.9s.6-2.9,1.6-3.9l32-32c1-1,2.4-1.6,3.9-1.6s2.9.6,3.9,1.6l13.9,13.9,29.3-29.3h-15c-3.1,0-5.6-2.5-5.6-5.6s2.5-5.6,5.6-5.6h28.6c.1,0,.3,0,.4,0,0,0,.2,0,.2,0,.2,0,.2,0,.3,0,0,0,.2,0,.3,0,.1,0,.2,0,.3,0,0,0,.2,0,.2,0,.1,0,.2,0,.2,0,0,0,.2,0,.2,0,.1,0,.2,0,.3.1,0,0,.2,0,.2.1.1,0,.2.1.3.2,0,0,.1,0,.2.1.1,0,.2.1.2.2.1,0,.2.2.3.3l.2.2c0,.1.2.2.3.3,0,0,.1.1.1.2,0,.1.1.2.2.2,0,0,.1.2.1.2,0,0,0,.2.1.2,0,0,0,.2.1.2,0,.1,0,.2.1.3,0,0,0,.1,0,.2,0,.2,0,.2.1.3,0,0,0,.1,0,.2,0,.1,0,.2,0,.3,0,0,0,.2,0,.3v.3c0,.2,0,.4,0,.6v28.5c0,3.1-2.5,5.6-5.6,5.6s-5.6-2.5-5.6-5.6v-15l-33.2,33.2c-1,1-2.4,1.6-3.9,1.6s-2.9-.6-3.9-1.6l-13.9-13.9-28.1,28.1c-1.1,1.1-2.5,1.6-3.9,1.6ZM163.8,55.7c-.4,0-.8.2-1.1.5l-32,32c-.3.3-.5.7-.5,1.1s.2.8.5,1.1c.6.6,1.6.6,2.2,0l30.9-30.9,16.7,16.7c.6.6,1.6.6,2.2,0l40-40v24.7c0,.9.7,1.6,1.6,1.6s1.6-.7,1.6-1.6v-28.5c0,0,0-.1,0-.2v-.2s1.8-.8,1.8-.8l-1.9.7,1.8-.8-1.9.7v-.2c0,0,1.4-1.3,1.4-1.3l-1.6,1.2,1.5-1.3-1.6,1.2s0,0,0,0h0c0,0,0,0,0-.1h-.2c0-.1.7-2,.7-2l-.8,1.8.7-1.9-.8,1.8h-.4c0-.1,0-.1-.1-.1h0s-28.4,0-28.4,0c-.9,0-1.6.7-1.6,1.6s.7,1.6,1.6,1.6h24.7l-38.9,38.9-16.7-16.7c-.3-.3-.7-.5-1.1-.5Z"/><path class="cls-2" d="M239.5,114.3h-120.8c-6.7,0-12.1-5.4-12.1-12.1V14.1c0-6.7,5.4-12.1,12.1-12.1h120.8c6.7,0,12.1,5.4,12.1,12.1v88c0,6.7-5.4,12.1-12.1,12.1ZM118.7,8.4c-3.2,0-5.8,2.6-5.8,5.8v88c0,3.2,2.6,5.8,5.8,5.8h120.8c3.2,0,5.8-2.6,5.8-5.8V14.1c0-3.2-2.6-5.8-5.8-5.8h-120.8Z"/><path class="cls-2" d="M239.5,116.3h-120.8c-7.8,0-14.1-6.3-14.1-14.1V14.1c0-7.8,6.3-14.1,14.1-14.1h120.8c7.8,0,14.1,6.3,14.1,14.1v88c0,7.8-6.3,14.1-14.1,14.1ZM118.7,4c-5.6,0-10.1,4.6-10.1,10.1v88c0,5.6,4.6,10.1,10.1,10.1h120.8c5.6,0,10.1-4.6,10.1-10.1V14.1c0-5.6-4.6-10.1-10.1-10.1h-120.8ZM239.5,109.9h-120.8c-4.3,0-7.8-3.5-7.8-7.8V14.1c0-4.3,3.5-7.8,7.8-7.8h120.8c4.3,0,7.8,3.5,7.8,7.8v88c0,4.3-3.5,7.8-7.8,7.8ZM118.7,10.4c-2.1,0-3.8,1.7-3.8,3.8v88c0,2.1,1.7,3.8,3.8,3.8h120.8c2.1,0,3.8-1.7,3.8-3.8V14.1c0-2.1-1.7-3.8-3.8-3.8h-120.8Z"/><path class="cls-2" d="M274.1,58h15.8l12.9,26,5.6,13.1h.4c-.7-6.3-2-15.1-2-22.3v-16.9h14.7v58.4h-15.8l-12.9-26.1-5.6-13h-.4c.7,6.6,2,15.1,2,22.3v16.9h-14.7v-58.4Z"/><path class="cls-2" d="M334.5,58h37.7v12.9h-22.3v9.2h19v12.9h-19v10.4h23.2v12.9h-38.6v-58.4Z"/><path class="cls-2" d="M378.8,58h15.8l3.2,25.5c.6,6.1,1.3,12.2,2,18.3h.4c1.1-6.1,2.2-12.3,3.2-18.3l5.6-25.5h12.9l5.6,25.5c1.1,5.8,2.2,12.1,3.2,18.3h.4c.6-6.2,1.3-12.4,2-18.3l3.2-25.5h14.7l-9.7,58.4h-19.6l-4.5-23.2c-.9-4.5-1.6-9.3-2.2-13.6h-.4c-.6,4.3-1.3,9.2-2.2,13.6l-4.3,23.2h-19.2l-10.2-58.4Z"/><path class="cls-2" d="M454.8,109.1l8.8-10.6c4.1,3.3,9.3,5.7,13.6,5.7s6.6-1.5,6.6-4.1-3-3.7-7.9-5.7l-7.3-3.1c-6.3-2.5-11.8-7.8-11.8-16.3s9-18.1,21.7-18.1,14,2.5,19.4,7.8l-7.7,9.7c-4-2.8-7.4-4.2-11.7-4.2s-6.1,1.3-6.1,4,3.3,3.8,8.6,5.8l7.1,2.8c7.3,2.9,11.4,7.9,11.4,16s-8.3,18.7-22.8,18.7-15.8-2.7-22.1-8.3Z"/><path class="cls-2" d="M247.7,160.7h-24.7v-20.7h74.1v20.7h-24.7v72.7h-24.7v-72.7Z"/><path class="cls-2" d="M382.6,233.4l-20.3-36.3c9.1-4.9,15.1-13.6,15.1-26.9,0-23.3-17.2-30.2-37.3-30.2h-35.3v93.4h24.7v-31.3h9.5l16.1,31.3h27.6ZM329.4,159.5h8.9c9.8,0,14.9,2.6,14.9,10.6s-5.2,12.4-14.9,12.4h-8.9v-23Z"/><path class="cls-2" d="M389,140h60.3v20.7h-35.6v14.7h30.5v20.7h-30.5v16.7h37.1v20.7h-61.8v-93.4Z"/><path class="cls-2" d="M462.7,140h25.3l20.7,41.7,8.9,21h.6c-1.1-10.1-3.2-24.1-3.2-35.6v-27h23.6v93.4h-25.3l-20.7-41.8-8.9-20.8h-.6c1.1,10.6,3.2,24.1,3.2,35.6v27h-23.6v-93.4Z"/><path class="cls-2" d="M551.1,140h27.6c28.4,0,48,13.2,48,46.3s-19.5,47.1-46.5,47.1h-29v-93.4ZM577.2,213.5c13.5,0,24.1-5.5,24.1-27.3s-10.6-26.4-24.1-26.4h-1.4v53.7h1.4Z"/><path class="cls-2" d="M630.7,221.7l14.1-17c6.6,5.3,14.9,9,21.8,9s10.6-2.4,10.6-6.6-4.7-5.9-12.6-9l-11.6-4.9c-10.1-4-18.8-12.5-18.8-26s14.4-29,34.8-29,22.4,4,31,12.5l-12.4,15.5c-6.3-4.5-11.8-6.8-18.7-6.8s-9.8,2.2-9.8,6.3,5.3,6,13.8,9.3l11.3,4.5c11.6,4.6,18.2,12.6,18.2,25.6s-13.2,29.9-36.5,29.9-25.3-4.3-35.3-13.4Z"/></g></svg>