<?xml version="1.0" encoding="UTF-8"?><svg id="Layer_2" xmlns="http://www.w3.org/2000/svg" viewBox="0 0 253.6 243.7"><defs><style>.cls-1{fill:none;}.cls-1,.cls-2{stroke-width:0px;}.cls-2,.cls-3{fill:#444;}.cls-3{stroke:#444;stroke-miterlimit:10;stroke-width:4px;}</style></defs><g id="Layer_1-2"><path class="cls-1" d="M12.4,225.1c0,3.4,2.8,6.2,6.2,6.2h167s-12.4,0-12.4-18.6v-90.6h-12.4v22.6H24.7v-49.5h72.3v-12.4H24.7v-12.4h72.3v-12.4H12.4v167ZM98.9,157.1h61.8v12.4h-61.8v-12.4ZM98.9,181.8h61.8v12.4h-61.8v-12.4ZM98.9,206.5h37.1v12.4h-37.1v-12.4ZM24.7,157.1h61.8v12.4H24.7v-12.4ZM24.7,181.8h61.8v12.4H24.7v-12.4ZM24.7,206.5h61.8v12.4H24.7v-12.4Z"/><path class="cls-2" d="M97.1,106.6v-11.3H24.7v49.5h136v-22.6h-48.1c-8.6,0-15.6-7-15.6-15.6Z"/><rect class="cls-2" x="24.7" y="70.5" width="72.3" height="12.4"/><rect class="cls-2" x="98.9" y="206.5" width="37.1" height="12.4"/><rect class="cls-2" x="98.9" y="181.8" width="61.8" height="12.4"/><rect class="cls-2" x="98.9" y="157.1" width="61.8" height="12.4"/><rect class="cls-2" x="24.7" y="206.5" width="61.8" height="12.4"/><rect class="cls-2" x="24.7" y="181.8" width="61.8" height="12.4"/><rect class="cls-2" x="24.7" y="157.1" width="61.8" height="12.4"/><path class="cls-2" d="M173.1,212.7c0,18.6,12.4,18.6,12.4,18.6H18.6c-3.4,0-6.2-2.8-6.2-6.2V58.1h84.7v-12.4H0v179.3c0,10.2,8.3,18.6,18.6,18.6h160.8c10.2,0,18.6-8.3,18.6-18.6v-102.9h-24.7v90.6Z"/><path class="cls-3" d="M227.8,32.3v28.5c0,2-1.6,3.6-3.6,3.6s-3.6-1.6-3.6-3.6v-19.9l-36.6,36.6c-1.4,1.4-3.6,1.4-5,0l-15.3-15.3-29.5,29.5c-1.4,1.4-3.6,1.4-5,0-1.4-1.4-1.4-3.6,0-5l32-32c1.4-1.4,3.6-1.4,5,0l15.3,15.3,34.1-34.1h-19.9c-2,0-3.6-1.6-3.6-3.6s1.6-3.6,3.6-3.6h28.5s0,0,0,0c.1,0,.2,0,.3,0,0,0,.1,0,.2,0,0,0,.1,0,.2,0,0,0,.1,0,.2,0,0,0,.1,0,.2,0,0,0,.1,0,.2,0,0,0,.1,0,.2,0,0,0,.1,0,.2,0,0,0,.1,0,.2,0,0,0,0,0,.1,0,0,0,.1,0,.2,0,0,0,.1,0,.2.1,0,0,0,0,.1,0,0,0,.2.1.2.2,0,0,0,0,0,0,0,0,0,0,0,0,0,0,.1.2.2.2,0,0,0,0,.1.1,0,0,0,0,.1.1,0,0,0,.1,0,.2,0,0,0,0,0,.1,0,0,0,.1,0,.2,0,0,0,0,0,.1,0,0,0,.1,0,.2,0,0,0,.1,0,.2,0,0,0,.1,0,.2,0,0,0,.1,0,.2,0,0,0,.1,0,.2,0,0,0,0,0,.1,0,.1,0,.2,0,.4Z"/><path class="cls-3" d="M239.5,114.3h-120.8c-6.7,0-12.1-5.4-12.1-12.1V14.1c0-6.7,5.4-12.1,12.1-12.1h120.8c6.7,0,12.1,5.4,12.1,12.1v88c0,6.7-5.4,12.1-12.1,12.1ZM118.7,8.4c-3.2,0-5.8,2.6-5.8,5.8v88c0,3.2,2.6,5.8,5.8,5.8h120.8c3.2,0,5.8-2.6,5.8-5.8V14.1c0-3.2-2.6-5.8-5.8-5.8h-120.8Z"/></g></svg>